<?xml version="1.0" standalone="no"?>
<!DOCTYPE svg PUBLIC "-//W3C//DTD SVG 20010904//EN"
 "http://www.w3.org/TR/2001/REC-SVG-20010904/DTD/svg10.dtd">
<svg version="1.0" xmlns="http://www.w3.org/2000/svg"
 width="64.000000pt" height="64.000000pt" viewBox="0 0 64.000000 64.000000"
 preserveAspectRatio="xMidYMid meet">

<g transform="translate(0.000000,64.000000) scale(0.100000,-0.100000)"
fill="#000000" stroke="none">
<path d="M287 622 c-10 -10 -17 -29 -17 -41 0 -13 -4 -19 -11 -16 -17 11 -58
-4 -70 -27 -9 -16 -8 -30 2 -60 11 -36 11 -41 -4 -50 -12 -6 -17 -22 -17 -56
0 -57 12 -72 57 -72 18 0 33 -4 33 -10 0 -28 -55 -150 -86 -190 l-35 -45 33
-27 c48 -40 64 -37 59 13 -1 10 14 47 34 84 19 37 35 74 35 83 0 9 11 -2 25
-25 15 -28 26 -67 31 -113 l7 -71 45 3 c51 3 62 18 33 45 -11 10 -24 42 -30
75 -5 31 -24 84 -41 117 -43 86 -41 105 15 121 25 7 47 11 48 9 2 -2 18 -71
37 -154 45 -202 49 -215 65 -215 21 0 20 7 -25 204 -34 148 -38 179 -28 197
11 18 10 23 -11 40 -27 22 -51 25 -51 5 0 -11 -40 -32 -45 -23 -1 1 -13 23
-27 48 l-25 47 24 11 c13 6 27 19 30 28 4 10 14 23 22 30 15 11 14 12 0 13 -9
0 -24 9 -34 20 -23 25 -57 26 -78 2z m83 -50 c0 -15 -24 -32 -45 -32 -21 0
-45 17 -45 32 0 4 20 8 45 8 25 0 45 -4 45 -8z m-150 -39 c0 -5 -5 -15 -10
-23 -8 -12 -10 -11 -10 8 0 12 5 22 10 22 6 0 10 -3 10 -7z m78 -2 c11 -7 11
-9 -1 -14 -16 -6 -27 0 -27 15 0 10 11 10 28 -1z m-58 -51 c0 -16 -4 -30 -10
-30 -5 0 -10 14 -10 30 0 17 5 30 10 30 6 0 10 -13 10 -30z m30 -1 c0 -17 -4
-28 -10 -24 -5 3 -10 17 -10 31 0 13 5 24 10 24 6 0 10 -14 10 -31z m0 -63 c0
-19 -4 -22 -25 -18 -16 3 -25 11 -25 23 0 14 7 19 25 19 20 0 25 -5 25 -24z
m205 4 c7 -12 -52 -39 -100 -47 -23 -4 -34 -1 -38 11 -5 11 1 17 21 22 15 3
41 10 57 14 42 11 53 11 60 0z m-232 -47 c-7 -2 -19 -2 -25 0 -7 3 -2 5 12 5
14 0 19 -2 13 -5z m67 -83 c0 -23 -43 -121 -52 -118 -14 5 -13 13 8 73 10 30
24 55 31 55 7 0 13 -4 13 -10z m53 -111 c-13 -13 -48 65 -37 82 5 9 14 0 27
-30 11 -26 15 -47 10 -52z m36 -71 c1 -42 -27 -36 -35 8 -5 26 -3 39 7 45 16
10 27 -11 28 -53z m-139 40 c-1 -23 -29 -51 -45 -44 -14 5 -14 8 1 31 17 26
44 34 44 13z m-40 -70 c0 -13 -23 -5 -28 10 -2 7 2 10 12 6 9 -3 16 -11 16
-16z m183 -15 c-7 -2 -19 -2 -25 0 -7 3 -2 5 12 5 14 0 19 -2 13 -5z"/>
</g>
</svg>
