<svg width="408" height="455" viewBox="0 0 408 455" fill="none" xmlns="http://www.w3.org/2000/svg">
<g clip-path="url(#clip0_1_5)">
<g clip-path="url(#clip1_1_5)">
<g clip-path="url(#clip2_1_5)">
<path d="M227.1 116C163.5 116 112.2 167.3 112.2 230.9C112.2 294.5 163.5 345.8 227.1 345.8C290.7 345.8 342 294.5 342 230.9C342 167.3 290.7 116 227.1 116ZM227.1 305.6C186 305.6 152.4 272.1 152.4 230.9C152.4 189.7 185.9 156.2 227.1 156.2C268.3 156.2 301.8 189.7 301.8 230.9C301.8 272.1 268.2 305.6 227.1 305.6ZM373.5 111.3C373.5 126.2 361.5 138.1 346.7 138.1C331.8 138.1 319.9 126.1 319.9 111.3C319.9 96.5 331.9 84.5 346.7 84.5C361.5 84.5 373.5 96.5 373.5 111.3ZM449.6 138.5C447.9 102.6 439.7 70.8 413.4 44.6C387.2 18.4 355.4 10.2 319.5 8.4C282.5 6.3 171.6 6.3 134.6 8.4C98.8 10.1 67 18.3 40.7 44.5C14.4 70.7 6.29999 102.5 4.49999 138.4C2.39999 175.4 2.39999 286.3 4.49999 323.3C6.19999 359.2 14.4 391 40.7 417.2C67 443.4 98.7 451.6 134.6 453.4C171.6 455.5 282.5 455.5 319.5 453.4C355.4 451.7 387.2 443.5 413.4 417.2C439.6 391 447.8 359.2 449.6 323.3C451.7 286.3 451.7 175.5 449.6 138.5ZM401.8 363C394 382.6 378.9 397.7 359.2 405.6C329.7 417.3 259.7 414.6 227.1 414.6C194.5 414.6 124.4 417.2 95 405.6C75.4 397.8 60.3 382.7 52.4 363C40.7 333.5 43.4 263.5 43.4 230.9C43.4 198.3 40.8 128.2 52.4 98.8C60.2 79.2 75.3 64.1 95 56.2C124.5 44.5 194.5 47.2 227.1 47.2C259.7 47.2 329.8 44.6 359.2 56.2C378.8 64 393.9 79.1 401.8 98.8C413.5 128.3 410.8 198.3 410.8 230.9C410.8 263.5 413.5 333.6 401.8 363Z" fill="white"/>
</g>
</g>
</g>
<defs>
<clipPath id="clip0_1_5">
<rect width="408" height="455" fill="white"/>
</clipPath>
<clipPath id="clip1_1_5">
<rect width="512" height="512" fill="white" transform="translate(-104 -63)"/>
</clipPath>
<clipPath id="clip2_1_5">
<rect width="448" height="512" fill="white" transform="translate(3 -25)"/>
</clipPath>
</defs>
</svg>
