<svg width="448" height="454" viewBox="0 0 448 454" fill="none" xmlns="http://www.w3.org/2000/svg">
<g clip-path="url(#clip0_1_8)">
<g clip-path="url(#clip1_1_8)">
<path d="M400 6H48C21.5 6 0 27.5 0 54V406C0 432.5 21.5 454 48 454H400C426.5 454 448 432.5 448 406V54C448 27.5 426.5 6 400 6ZM351.1 164.8C351.3 167.6 351.3 170.5 351.3 173.3C351.3 260 285.3 359.9 164.7 359.9C127.5 359.9 93 349.1 64 330.5C69.3 331.1 74.4 331.3 79.8 331.3C110.5 331.3 138.7 320.9 161.2 303.3C132.4 302.7 108.2 283.8 99.9 257.8C110 259.3 119.1 259.3 129.5 256.6C99.5 250.5 77 224.1 77 192.2V191.4C85.7 196.3 95.9 199.3 106.6 199.7C97.6043 193.716 90.2298 185.599 85.1347 176.072C80.0396 166.544 77.3823 155.904 77.4 145.1C77.4 132.9 80.6 121.7 86.3 112C118.6 151.8 167.1 177.8 221.5 180.6C212.2 136.1 245.5 100 285.5 100C304.4 100 321.4 107.9 333.4 120.7C348.2 117.9 362.4 112.4 375 104.9C370.1 120.1 359.8 132.9 346.2 141C359.4 139.6 372.2 135.9 384 130.8C375.1 143.9 363.9 155.5 351.1 164.8Z" fill="white"/>
</g>
</g>
<defs>
<clipPath id="clip0_1_8">
<rect width="448" height="454" fill="white"/>
</clipPath>
<clipPath id="clip1_1_8">
<rect width="448" height="480" fill="white" transform="translate(0 -26)"/>
</clipPath>
</defs>
</svg>
